<svg width="146" height="22" viewBox="0 0 146 22" fill="none" xmlns="http://www.w3.org/2000/svg">
<path d="M9.196 21.264C8.008 21.264 6.90067 21.0733 5.874 20.692C4.862 20.296 3.982 19.7387 3.234 19.02C2.486 18.3013 1.89933 17.458 1.474 16.49C1.06333 15.522 0.858 14.4587 0.858 13.3C0.858 12.1413 1.06333 11.078 1.474 10.11C1.89933 9.142 2.486 8.29867 3.234 7.58C3.99667 6.86133 4.884 6.31133 5.896 5.93C6.908 5.534 8.01533 5.336 9.218 5.336C10.5527 5.336 11.7553 5.57067 12.826 6.04C13.9113 6.49467 14.8207 7.16933 15.554 8.064L13.266 10.176C12.738 9.57467 12.1513 9.12733 11.506 8.834C10.8607 8.526 10.1567 8.372 9.394 8.372C8.67533 8.372 8.01533 8.48933 7.414 8.724C6.81267 8.95867 6.292 9.296 5.852 9.736C5.412 10.176 5.06733 10.6967 4.818 11.298C4.58333 11.8993 4.466 12.5667 4.466 13.3C4.466 14.0333 4.58333 14.7007 4.818 15.302C5.06733 15.9033 5.412 16.424 5.852 16.864C6.292 17.304 6.81267 17.6413 7.414 17.876C8.01533 18.1107 8.67533 18.228 9.394 18.228C10.1567 18.228 10.8607 18.0813 11.506 17.788C12.1513 17.48 12.738 17.018 13.266 16.402L15.554 18.514C14.8207 19.4087 13.9113 20.0907 12.826 20.56C11.7553 21.0293 10.5453 21.264 9.196 21.264ZM15.2988 21V9.164H18.5768V12.508L18.1148 11.54C18.4668 10.704 19.0314 10.0733 19.8088 9.648C20.5861 9.208 21.5321 8.988 22.6468 8.988V12.156C22.5001 12.1413 22.3681 12.134 22.2508 12.134C22.1334 12.1193 22.0088 12.112 21.8768 12.112C20.9381 12.112 20.1754 12.3833 19.5888 12.926C19.0168 13.454 18.7308 14.2827 18.7308 15.412V21H15.2988ZM28.0555 21.176C26.7062 21.176 25.5182 20.912 24.4915 20.384C23.4795 19.856 22.6948 19.1373 22.1375 18.228C21.5802 17.304 21.3015 16.2553 21.3015 15.082C21.3015 13.894 21.5728 12.8453 22.1155 11.936C22.6728 11.012 23.4282 10.2933 24.3815 9.78C25.3348 9.252 26.4128 8.988 27.6155 8.988C28.7742 8.988 29.8155 9.23733 30.7395 9.736C31.6782 10.22 32.4188 10.924 32.9615 11.848C33.5042 12.7573 33.7755 13.85 33.7755 15.126C33.7755 15.258 33.7682 15.412 33.7535 15.588C33.7388 15.7493 33.7242 15.9033 33.7095 16.05H24.0955V14.048H31.9055L30.5855 14.642C30.5855 14.026 30.4608 13.4907 30.2115 13.036C29.9622 12.5813 29.6175 12.2293 29.1775 11.98C28.7375 11.716 28.2242 11.584 27.6375 11.584C27.0508 11.584 26.5302 11.716 26.0755 11.98C25.6355 12.2293 25.2908 12.5887 25.0415 13.058C24.7922 13.5127 24.6675 14.0553 24.6675 14.686V15.214C24.6675 15.8593 24.8068 16.4313 25.0855 16.93C25.3788 17.414 25.7822 17.788 26.2955 18.052C26.8235 18.3013 27.4395 18.426 28.1435 18.426C28.7742 18.426 29.3242 18.3307 29.7935 18.14C30.2775 17.9493 30.7175 17.6633 31.1135 17.282L32.9395 19.262C32.3968 19.878 31.7148 20.3547 30.8935 20.692C30.0722 21.0147 29.1262 21.176 28.0555 21.176ZM40.5781 21V18.69L40.3581 18.184V14.048C40.3581 13.3147 40.1308 12.7427 39.6761 12.332C39.2361 11.9213 38.5541 11.716 37.6301 11.716C36.9995 11.716 36.3761 11.8187 35.7601 12.024C35.1588 12.2147 34.6455 12.4787 34.2201 12.816L32.9881 10.418C33.6335 9.96333 34.4108 9.61133 35.3201 9.362C36.2295 9.11267 37.1535 8.988 38.0921 8.988C39.8961 8.988 41.2968 9.41333 42.2941 10.264C43.2915 11.1147 43.7901 12.442 43.7901 14.246V21H40.5781ZM36.9701 21.176C36.0461 21.176 35.2541 21.022 34.5941 20.714C33.9341 20.3913 33.4281 19.9587 33.0761 19.416C32.7241 18.8733 32.5481 18.2647 32.5481 17.59C32.5481 16.886 32.7168 16.27 33.0541 15.742C33.4061 15.214 33.9561 14.8033 34.7041 14.51C35.4521 14.202 36.4275 14.048 37.6301 14.048H40.7761V16.05H38.0041C37.1975 16.05 36.6401 16.182 36.3321 16.446C36.0388 16.71 35.8921 17.04 35.8921 17.436C35.8921 17.876 36.0608 18.228 36.3981 18.492C36.7501 18.7413 37.2268 18.866 37.8281 18.866C38.4001 18.866 38.9135 18.734 39.3681 18.47C39.8228 18.1913 40.1528 17.788 40.3581 17.26L40.8861 18.844C40.6368 19.6067 40.1821 20.186 39.5221 20.582C38.8621 20.978 38.0115 21.176 36.9701 21.176ZM49.3163 21.176C47.9229 21.176 46.8376 20.824 46.0603 20.12C45.2829 19.4013 44.8943 18.338 44.8943 16.93V6.546H48.3263V16.886C48.3263 17.3847 48.4583 17.7733 48.7223 18.052C48.9863 18.316 49.3456 18.448 49.8003 18.448C50.3429 18.448 50.8049 18.3013 51.1863 18.008L52.1103 20.428C51.7583 20.6773 51.3329 20.868 50.8343 21C50.3503 21.1173 49.8443 21.176 49.3163 21.176ZM43.0683 12.068V9.428H51.2743V12.068H43.0683ZM57.1256 21.176C55.7762 21.176 54.5882 20.912 53.5616 20.384C52.5496 19.856 51.7649 19.1373 51.2076 18.228C50.6502 17.304 50.3716 16.2553 50.3716 15.082C50.3716 13.894 50.6429 12.8453 51.1856 11.936C51.7429 11.012 52.4982 10.2933 53.4516 9.78C54.4049 9.252 55.4829 8.988 56.6856 8.988C57.8442 8.988 58.8856 9.23733 59.8096 9.736C60.7482 10.22 61.4889 10.924 62.0316 11.848C62.5742 12.7573 62.8456 13.85 62.8456 15.126C62.8456 15.258 62.8382 15.412 62.8236 15.588C62.8089 15.7493 62.7942 15.9033 62.7796 16.05H53.1656V14.048H60.9756L59.6556 14.642C59.6556 14.026 59.5309 13.4907 59.2816 13.036C59.0322 12.5813 58.6876 12.2293 58.2476 11.98C57.8076 11.716 57.2942 11.584 56.7076 11.584C56.1209 11.584 55.6002 11.716 55.1456 11.98C54.7056 12.2293 54.3609 12.5887 54.1116 13.058C53.8622 13.5127 53.7376 14.0553 53.7376 14.686V15.214C53.7376 15.8593 53.8769 16.4313 54.1556 16.93C54.4489 17.414 54.8522 17.788 55.3656 18.052C55.8936 18.3013 56.5096 18.426 57.2136 18.426C57.8442 18.426 58.3942 18.3307 58.8636 18.14C59.3476 17.9493 59.7876 17.6633 60.1836 17.282L62.0096 19.262C61.4669 19.878 60.7849 20.3547 59.9636 20.692C59.1422 21.0147 58.1962 21.176 57.1256 21.176ZM73.781 21V18.69L73.561 18.184V14.048C73.561 13.3147 73.3336 12.7427 72.879 12.332C72.439 11.9213 71.757 11.716 70.833 11.716C70.2023 11.716 69.579 11.8187 68.963 12.024C68.3616 12.2147 67.8483 12.4787 67.423 12.816L66.191 10.418C66.8363 9.96333 67.6136 9.61133 68.523 9.362C69.4323 9.11267 70.3563 8.988 71.295 8.988C73.099 8.988 74.4996 9.41333 75.497 10.264C76.4943 11.1147 76.993 12.442 76.993 14.246V21H73.781ZM70.173 21.176C69.249 21.176 68.457 21.022 67.797 20.714C67.137 20.3913 66.631 19.9587 66.279 19.416C65.927 18.8733 65.751 18.2647 65.751 17.59C65.751 16.886 65.9196 16.27 66.257 15.742C66.609 15.214 67.159 14.8033 67.907 14.51C68.655 14.202 69.6303 14.048 70.833 14.048H73.979V16.05H71.207C70.4003 16.05 69.843 16.182 69.535 16.446C69.2416 16.71 69.095 17.04 69.095 17.436C69.095 17.876 69.2636 18.228 69.601 18.492C69.953 18.7413 70.4296 18.866 71.031 18.866C71.603 18.866 72.1163 18.734 72.571 18.47C73.0256 18.1913 73.3556 17.788 73.561 17.26L74.089 18.844C73.8396 19.6067 73.385 20.186 72.725 20.582C72.065 20.978 71.2143 21.176 70.173 21.176ZM83.485 21.176C82.209 21.176 81.0723 20.9193 80.075 20.406C79.0777 19.878 78.293 19.152 77.721 18.228C77.1637 17.304 76.885 16.2553 76.885 15.082C76.885 13.894 77.1637 12.8453 77.721 11.936C78.293 11.012 79.0777 10.2933 80.075 9.78C81.0723 9.252 82.209 8.988 83.485 8.988C84.7317 8.988 85.817 9.252 86.741 9.78C87.665 10.2933 88.347 11.034 88.787 12.002L86.125 13.432C85.817 12.8747 85.4283 12.464 84.959 12.2C84.5043 11.936 84.0057 11.804 83.463 11.804C82.8763 11.804 82.3483 11.936 81.879 12.2C81.4097 12.464 81.0357 12.838 80.757 13.322C80.493 13.806 80.361 14.3927 80.361 15.082C80.361 15.7713 80.493 16.358 80.757 16.842C81.0357 17.326 81.4097 17.7 81.879 17.964C82.3483 18.228 82.8763 18.36 83.463 18.36C84.0057 18.36 84.5043 18.2353 84.959 17.986C85.4283 17.722 85.817 17.304 86.125 16.732L88.787 18.184C88.347 19.1373 87.665 19.878 86.741 20.406C85.817 20.9193 84.7317 21.176 83.485 21.176ZM93.9127 21.176C92.6367 21.176 91.5 20.9193 90.5027 20.406C89.5053 19.878 88.7207 19.152 88.1487 18.228C87.5913 17.304 87.3127 16.2553 87.3127 15.082C87.3127 13.894 87.5913 12.8453 88.1487 11.936C88.7207 11.012 89.5053 10.2933 90.5027 9.78C91.5 9.252 92.6367 8.988 93.9127 8.988C95.1593 8.988 96.2447 9.252 97.1687 9.78C98.0927 10.2933 98.7747 11.034 99.2147 12.002L96.5527 13.432C96.2447 12.8747 95.856 12.464 95.3867 12.2C94.932 11.936 94.4333 11.804 93.8907 11.804C93.304 11.804 92.776 11.936 92.3067 12.2C91.8373 12.464 91.4633 12.838 91.1847 13.322C90.9207 13.806 90.7887 14.3927 90.7887 15.082C90.7887 15.7713 90.9207 16.358 91.1847 16.842C91.4633 17.326 91.8373 17.7 92.3067 17.964C92.776 18.228 93.304 18.36 93.8907 18.36C94.4333 18.36 94.932 18.2353 95.3867 17.986C95.856 17.722 96.2447 17.304 96.5527 16.732L99.2147 18.184C98.7747 19.1373 98.0927 19.878 97.1687 20.406C96.2447 20.9193 95.1593 21.176 93.9127 21.176ZM104.252 21.176C102.991 21.176 101.869 20.912 100.886 20.384C99.9183 19.856 99.1483 19.1373 98.5763 18.228C98.019 17.304 97.7403 16.2553 97.7403 15.082C97.7403 13.894 98.019 12.8453 98.5763 11.936C99.1483 11.012 99.9183 10.2933 100.886 9.78C101.869 9.252 102.991 8.988 104.252 8.988C105.499 8.988 106.614 9.252 107.596 9.78C108.579 10.2933 109.349 11.0047 109.906 11.914C110.464 12.8233 110.742 13.8793 110.742 15.082C110.742 16.2553 110.464 17.304 109.906 18.228C109.349 19.1373 108.579 19.856 107.596 20.384C106.614 20.912 105.499 21.176 104.252 21.176ZM104.252 18.36C104.824 18.36 105.338 18.228 105.792 17.964C106.247 17.7 106.606 17.326 106.87 16.842C107.134 16.3433 107.266 15.7567 107.266 15.082C107.266 14.3927 107.134 13.806 106.87 13.322C106.606 12.838 106.247 12.464 105.792 12.2C105.338 11.936 104.824 11.804 104.252 11.804C103.68 11.804 103.167 11.936 102.712 12.2C102.258 12.464 101.891 12.838 101.612 13.322C101.348 13.806 101.216 14.3927 101.216 15.082C101.216 15.7567 101.348 16.3433 101.612 16.842C101.891 17.326 102.258 17.7 102.712 17.964C103.167 18.228 103.68 18.36 104.252 18.36ZM115.61 21.176C114.628 21.176 113.748 20.9853 112.97 20.604C112.208 20.2227 111.614 19.6433 111.188 18.866C110.763 18.074 110.55 17.0693 110.55 15.852V9.164H113.982V15.346C113.982 16.3287 114.188 17.0547 114.598 17.524C115.024 17.9787 115.618 18.206 116.38 18.206C116.908 18.206 117.378 18.096 117.788 17.876C118.199 17.6413 118.522 17.2893 118.756 16.82C118.991 16.336 119.108 15.7347 119.108 15.016V9.164H122.54V21H119.284V17.744L119.878 18.69C119.482 19.5113 118.896 20.1347 118.118 20.56C117.356 20.9707 116.52 21.176 115.61 21.176ZM130.494 8.988C131.433 8.988 132.269 9.17867 133.002 9.56C133.75 9.92667 134.337 10.4987 134.762 11.276C135.187 12.0387 135.4 13.0213 135.4 14.224V21H131.968V14.752C131.968 13.7987 131.755 13.0947 131.33 12.64C130.919 12.1853 130.333 11.958 129.57 11.958C129.027 11.958 128.536 12.0753 128.096 12.31C127.671 12.53 127.333 12.8747 127.084 13.344C126.849 13.8133 126.732 14.4147 126.732 15.148V21H123.3V9.164H126.578V12.442L125.962 11.452C126.387 10.66 126.996 10.0513 127.788 9.626C128.58 9.20067 129.482 8.988 130.494 8.988ZM140.931 21.176C139.537 21.176 138.452 20.824 137.675 20.12C136.897 19.4013 136.509 18.338 136.509 16.93V6.546H139.941V16.886C139.941 17.3847 140.073 17.7733 140.337 18.052C140.601 18.316 140.96 18.448 141.415 18.448C141.957 18.448 142.419 18.3013 142.801 18.008L143.725 20.428C143.373 20.6773 142.947 20.868 142.449 21C141.965 21.1173 141.459 21.176 140.931 21.176ZM134.683 12.068V9.428H142.889V12.068H134.683Z" fill="#FEFFCA"/>
</svg>
