<svg width="135" height="38" viewBox="0 0 135 38" fill="none" xmlns="http://www.w3.org/2000/svg">
<path d="M89.49 30.2667V9.26666H98.58C100.46 9.26666 102.08 9.57666 103.44 10.1967C104.8 10.7967 105.85 11.6667 106.59 12.8067C107.33 13.9467 107.7 15.3067 107.7 16.8867C107.7 18.4467 107.33 19.7967 106.59 20.9367C105.85 22.0767 104.8 22.9567 103.44 23.5767C102.08 24.1767 100.46 24.4767 98.58 24.4767H92.19L94.35 22.2867V30.2667H89.49ZM94.35 22.8267L92.19 20.5167H98.31C99.81 20.5167 100.93 20.1967 101.67 19.5567C102.41 18.9167 102.78 18.0267 102.78 16.8867C102.78 15.7267 102.41 14.8267 101.67 14.1867C100.93 13.5467 99.81 13.2267 98.31 13.2267H92.19L94.35 10.9167V22.8267ZM117.893 30.2667V27.1167L117.593 26.4267V20.7867C117.593 19.7867 117.283 19.0067 116.663 18.4467C116.063 17.8867 115.133 17.6067 113.873 17.6067C113.013 17.6067 112.163 17.7467 111.323 18.0267C110.503 18.2867 109.803 18.6467 109.223 19.1067L107.543 15.8367C108.423 15.2167 109.483 14.7367 110.723 14.3967C111.963 14.0567 113.223 13.8867 114.503 13.8867C116.963 13.8867 118.873 14.4667 120.233 15.6267C121.593 16.7867 122.273 18.5967 122.273 21.0567V30.2667H117.893ZM112.973 30.5067C111.713 30.5067 110.633 30.2967 109.733 29.8767C108.833 29.4367 108.143 28.8467 107.663 28.1067C107.183 27.3667 106.943 26.5367 106.943 25.6167C106.943 24.6567 107.173 23.8167 107.633 23.0967C108.113 22.3767 108.863 21.8167 109.883 21.4167C110.903 20.9967 112.233 20.7867 113.873 20.7867H118.163V23.5167H114.383C113.283 23.5167 112.523 23.6967 112.103 24.0567C111.703 24.4167 111.503 24.8667 111.503 25.4067C111.503 26.0067 111.733 26.4867 112.193 26.8467C112.673 27.1867 113.323 27.3567 114.143 27.3567C114.923 27.3567 115.623 27.1767 116.243 26.8167C116.863 26.4367 117.313 25.8867 117.593 25.1667L118.313 27.3267C117.973 28.3667 117.353 29.1567 116.453 29.6967C115.553 30.2367 114.393 30.5067 112.973 30.5067ZM123.809 30.2667V8.00666H128.489V30.2667H123.809Z" fill="#456B19"/>
<path d="M2.49 29V8H11.58C13.46 8 15.08 8.31 16.44 8.93C17.8 9.53 18.85 10.4 19.59 11.54C20.33 12.68 20.7 14.04 20.7 15.62C20.7 17.18 20.33 18.53 19.59 19.67C18.85 20.81 17.8 21.69 16.44 22.31C15.08 22.91 13.46 23.21 11.58 23.21H5.19L7.35 21.02V29H2.49ZM7.35 21.56L5.19 19.25H11.31C12.81 19.25 13.93 18.93 14.67 18.29C15.41 17.65 15.78 16.76 15.78 15.62C15.78 14.46 15.41 13.56 14.67 12.92C13.93 12.28 12.81 11.96 11.31 11.96H5.19L7.35 9.65V21.56ZM30.2932 29V25.85L29.9932 25.16V19.52C29.9932 18.52 29.6832 17.74 29.0632 17.18C28.4632 16.62 27.5332 16.34 26.2732 16.34C25.4132 16.34 24.5632 16.48 23.7232 16.76C22.9032 17.02 22.2032 17.38 21.6232 17.84L19.9432 14.57C20.8232 13.95 21.8832 13.47 23.1232 13.13C24.3632 12.79 25.6232 12.62 26.9032 12.62C29.3632 12.62 31.2732 13.2 32.6332 14.36C33.9932 15.52 34.6732 17.33 34.6732 19.79V29H30.2932ZM25.3732 29.24C24.1132 29.24 23.0332 29.03 22.1332 28.61C21.2332 28.17 20.5432 27.58 20.0632 26.84C19.5832 26.1 19.3432 25.27 19.3432 24.35C19.3432 23.39 19.5732 22.55 20.0332 21.83C20.5132 21.11 21.2632 20.55 22.2832 20.15C23.3032 19.73 24.6332 19.52 26.2732 19.52H30.5632V22.25H26.7832C25.6832 22.25 24.9232 22.43 24.5032 22.79C24.1032 23.15 23.9032 23.6 23.9032 24.14C23.9032 24.74 24.1332 25.22 24.5932 25.58C25.0732 25.92 25.7232 26.09 26.5432 26.09C27.3232 26.09 28.0232 25.91 28.6432 25.55C29.2632 25.17 29.7132 24.62 29.9932 23.9L30.7132 26.06C30.3732 27.1 29.7532 27.89 28.8532 28.43C27.9532 28.97 26.7932 29.24 25.3732 29.24ZM45.4188 12.62C46.6988 12.62 47.8388 12.88 48.8388 13.4C49.8588 13.9 50.6588 14.68 51.2388 15.74C51.8188 16.78 52.1088 18.12 52.1088 19.76V29H47.4288V20.48C47.4288 19.18 47.1388 18.22 46.5588 17.6C45.9988 16.98 45.1988 16.67 44.1588 16.67C43.4188 16.67 42.7488 16.83 42.1488 17.15C41.5688 17.45 41.1088 17.92 40.7688 18.56C40.4488 19.2 40.2888 20.02 40.2888 21.02V29H35.6088V12.86H40.0788V17.33L39.2388 15.98C39.8188 14.9 40.6488 14.07 41.7288 13.49C42.8088 12.91 44.0388 12.62 45.4188 12.62ZM59.651 29.24C57.751 29.24 56.271 28.76 55.211 27.8C54.151 26.82 53.621 25.37 53.621 23.45V9.29H58.301V23.39C58.301 24.07 58.481 24.6 58.841 24.98C59.201 25.34 59.691 25.52 60.311 25.52C61.051 25.52 61.681 25.32 62.201 24.92L63.461 28.22C62.981 28.56 62.401 28.82 61.721 29C61.061 29.16 60.371 29.24 59.651 29.24ZM51.131 16.82V13.22H62.321V16.82H51.131ZM62.7881 29V12.86H67.2581V17.42L66.6281 16.1C67.1081 14.96 67.8781 14.1 68.9381 13.52C69.9981 12.92 71.2881 12.62 72.8081 12.62V16.94C72.6081 16.92 72.4281 16.91 72.2681 16.91C72.1081 16.89 71.9381 16.88 71.7581 16.88C70.4781 16.88 69.4381 17.25 68.6381 17.99C67.8581 18.71 67.4681 19.84 67.4681 21.38V29H62.7881ZM74.8875 35.06C74.0475 35.06 73.2175 34.93 72.3975 34.67C71.5775 34.41 70.9075 34.05 70.3875 33.59L72.0975 30.26C72.4575 30.58 72.8675 30.83 73.3275 31.01C73.8075 31.19 74.2775 31.28 74.7375 31.28C75.3975 31.28 75.9175 31.12 76.2975 30.8C76.6975 30.5 77.0575 29.99 77.3775 29.27L78.2175 27.29L78.5775 26.78L84.3675 12.86H88.8675L81.5775 29.99C81.0575 31.29 80.4575 32.31 79.7775 33.05C79.1175 33.79 78.3775 34.31 77.5575 34.61C76.7575 34.91 75.8675 35.06 74.8875 35.06ZM77.6475 29.63L70.4475 12.86H75.2775L80.8575 26.36L77.6475 29.63Z" fill="#FEFFCA"/>
</svg>
