<svg width="146" height="22" viewBox="0 0 146 22" fill="none" xmlns="http://www.w3.org/2000/svg">
<path d="M5.522 21L0.484 5.6H4.18L8.558 19.24H6.71L11.286 5.6H14.586L18.986 19.24H17.204L21.692 5.6H25.102L20.064 21H16.236L12.342 9.032H13.354L9.35 21H5.522ZM29.4228 21.176C28.0734 21.176 26.8854 20.912 25.8588 20.384C24.8468 19.856 24.0621 19.1373 23.5048 18.228C22.9474 17.304 22.6688 16.2553 22.6688 15.082C22.6688 13.894 22.9401 12.8453 23.4828 11.936C24.0401 11.012 24.7954 10.2933 25.7488 9.78C26.7021 9.252 27.7801 8.988 28.9828 8.988C30.1414 8.988 31.1828 9.23733 32.1068 9.736C33.0454 10.22 33.7861 10.924 34.3288 11.848C34.8714 12.7573 35.1428 13.85 35.1428 15.126C35.1428 15.258 35.1354 15.412 35.1208 15.588C35.1061 15.7493 35.0914 15.9033 35.0768 16.05H25.4628V14.048H33.2728L31.9528 14.642C31.9528 14.026 31.8281 13.4907 31.5788 13.036C31.3294 12.5813 30.9848 12.2293 30.5448 11.98C30.1048 11.716 29.5914 11.584 29.0048 11.584C28.4181 11.584 27.8974 11.716 27.4428 11.98C27.0028 12.2293 26.6581 12.5887 26.4088 13.058C26.1594 13.5127 26.0348 14.0553 26.0348 14.686V15.214C26.0348 15.8593 26.1741 16.4313 26.4528 16.93C26.7461 17.414 27.1494 17.788 27.6628 18.052C28.1908 18.3013 28.8068 18.426 29.5108 18.426C30.1414 18.426 30.6914 18.3307 31.1608 18.14C31.6448 17.9493 32.0848 17.6633 32.4808 17.282L34.3068 19.262C33.7641 19.878 33.0821 20.3547 32.2608 20.692C31.4394 21.0147 30.4934 21.176 29.4228 21.176ZM35.0077 21V4.676H38.4397V21H35.0077ZM44.9249 21.176C43.6489 21.176 42.5122 20.9193 41.5149 20.406C40.5175 19.878 39.7329 19.152 39.1609 18.228C38.6035 17.304 38.3249 16.2553 38.3249 15.082C38.3249 13.894 38.6035 12.8453 39.1609 11.936C39.7329 11.012 40.5175 10.2933 41.5149 9.78C42.5122 9.252 43.6489 8.988 44.9249 8.988C46.1715 8.988 47.2569 9.252 48.1809 9.78C49.1049 10.2933 49.7869 11.034 50.2269 12.002L47.5649 13.432C47.2569 12.8747 46.8682 12.464 46.3989 12.2C45.9442 11.936 45.4455 11.804 44.9029 11.804C44.3162 11.804 43.7882 11.936 43.3189 12.2C42.8495 12.464 42.4755 12.838 42.1969 13.322C41.9329 13.806 41.8009 14.3927 41.8009 15.082C41.8009 15.7713 41.9329 16.358 42.1969 16.842C42.4755 17.326 42.8495 17.7 43.3189 17.964C43.7882 18.228 44.3162 18.36 44.9029 18.36C45.4455 18.36 45.9442 18.2353 46.3989 17.986C46.8682 17.722 47.2569 17.304 47.5649 16.732L50.2269 18.184C49.7869 19.1373 49.1049 19.878 48.1809 20.406C47.2569 20.9193 46.1715 21.176 44.9249 21.176ZM55.2645 21.176C54.0032 21.176 52.8812 20.912 51.8985 20.384C50.9305 19.856 50.1605 19.1373 49.5885 18.228C49.0312 17.304 48.7525 16.2553 48.7525 15.082C48.7525 13.894 49.0312 12.8453 49.5885 11.936C50.1605 11.012 50.9305 10.2933 51.8985 9.78C52.8812 9.252 54.0032 8.988 55.2645 8.988C56.5112 8.988 57.6258 9.252 58.6085 9.78C59.5912 10.2933 60.3612 11.0047 60.9185 11.914C61.4758 12.8233 61.7545 13.8793 61.7545 15.082C61.7545 16.2553 61.4758 17.304 60.9185 18.228C60.3612 19.1373 59.5912 19.856 58.6085 20.384C57.6258 20.912 56.5112 21.176 55.2645 21.176ZM55.2645 18.36C55.8365 18.36 56.3498 18.228 56.8045 17.964C57.2592 17.7 57.6185 17.326 57.8825 16.842C58.1465 16.3433 58.2785 15.7567 58.2785 15.082C58.2785 14.3927 58.1465 13.806 57.8825 13.322C57.6185 12.838 57.2592 12.464 56.8045 12.2C56.3498 11.936 55.8365 11.804 55.2645 11.804C54.6925 11.804 54.1792 11.936 53.7245 12.2C53.2698 12.464 52.9032 12.838 52.6245 13.322C52.3605 13.806 52.2285 14.3927 52.2285 15.082C52.2285 15.7567 52.3605 16.3433 52.6245 16.842C52.9032 17.326 53.2698 17.7 53.7245 17.964C54.1792 18.228 54.6925 18.36 55.2645 18.36ZM76.7865 8.988C77.7252 8.988 78.5539 9.17867 79.2725 9.56C80.0059 9.92667 80.5779 10.4987 80.9885 11.276C81.4139 12.0387 81.6265 13.0213 81.6265 14.224V21H78.1945V14.752C78.1945 13.7987 77.9965 13.0947 77.6005 12.64C77.2045 12.1853 76.6472 11.958 75.9285 11.958C75.4299 11.958 74.9825 12.0753 74.5865 12.31C74.1905 12.53 73.8825 12.8673 73.6625 13.322C73.4425 13.7767 73.3325 14.356 73.3325 15.06V21H69.9005V14.752C69.9005 13.7987 69.7025 13.0947 69.3065 12.64C68.9252 12.1853 68.3752 11.958 67.6565 11.958C67.1579 11.958 66.7105 12.0753 66.3145 12.31C65.9185 12.53 65.6105 12.8673 65.3905 13.322C65.1705 13.7767 65.0605 14.356 65.0605 15.06V21H61.6285V9.164H64.9065V12.398L64.2905 11.452C64.7012 10.6453 65.2805 10.0367 66.0285 9.626C66.7912 9.20067 67.6565 8.988 68.6245 8.988C69.7099 8.988 70.6559 9.26667 71.4625 9.824C72.2839 10.3667 72.8265 11.2027 73.0905 12.332L71.8805 12.002C72.2765 11.078 72.9072 10.3447 73.7725 9.802C74.6525 9.25933 75.6572 8.988 76.7865 8.988ZM88.2427 21.176C86.8934 21.176 85.7054 20.912 84.6787 20.384C83.6667 19.856 82.882 19.1373 82.3247 18.228C81.7673 17.304 81.4887 16.2553 81.4887 15.082C81.4887 13.894 81.76 12.8453 82.3027 11.936C82.86 11.012 83.6154 10.2933 84.5687 9.78C85.522 9.252 86.6 8.988 87.8027 8.988C88.9614 8.988 90.0027 9.23733 90.9267 9.736C91.8654 10.22 92.606 10.924 93.1487 11.848C93.6914 12.7573 93.9627 13.85 93.9627 15.126C93.9627 15.258 93.9554 15.412 93.9407 15.588C93.926 15.7493 93.9114 15.9033 93.8967 16.05H84.2827V14.048H92.0927L90.7727 14.642C90.7727 14.026 90.648 13.4907 90.3987 13.036C90.1494 12.5813 89.8047 12.2293 89.3647 11.98C88.9247 11.716 88.4114 11.584 87.8247 11.584C87.238 11.584 86.7174 11.716 86.2627 11.98C85.8227 12.2293 85.478 12.5887 85.2287 13.058C84.9793 13.5127 84.8547 14.0553 84.8547 14.686V15.214C84.8547 15.8593 84.994 16.4313 85.2727 16.93C85.566 17.414 85.9694 17.788 86.4827 18.052C87.0107 18.3013 87.6267 18.426 88.3307 18.426C88.9614 18.426 89.5114 18.3307 89.9807 18.14C90.4647 17.9493 90.9047 17.6633 91.3007 17.282L93.1267 19.262C92.584 19.878 91.902 20.3547 91.0807 20.692C90.2594 21.0147 89.3134 21.176 88.2427 21.176ZM104.634 21.176C103.593 21.176 102.698 20.956 101.95 20.516C101.202 20.076 100.63 19.4087 100.234 18.514C99.8381 17.6047 99.6401 16.4607 99.6401 15.082C99.6401 13.6887 99.8454 12.5447 100.256 11.65C100.681 10.7553 101.268 10.088 102.016 9.648C102.764 9.208 103.637 8.988 104.634 8.988C105.749 8.988 106.746 9.23733 107.626 9.736C108.521 10.2347 109.225 10.9387 109.738 11.848C110.266 12.7573 110.53 13.8353 110.53 15.082C110.53 16.314 110.266 17.3847 109.738 18.294C109.225 19.2033 108.521 19.9147 107.626 20.428C106.746 20.9267 105.749 21.176 104.634 21.176ZM97.6381 21V4.676H101.07V11.562L100.85 15.06L100.916 18.58V21H97.6381ZM104.04 18.36C104.612 18.36 105.118 18.228 105.558 17.964C106.013 17.7 106.372 17.326 106.636 16.842C106.915 16.3433 107.054 15.7567 107.054 15.082C107.054 14.3927 106.915 13.806 106.636 13.322C106.372 12.838 106.013 12.464 105.558 12.2C105.118 11.936 104.612 11.804 104.04 11.804C103.468 11.804 102.955 11.936 102.5 12.2C102.045 12.464 101.686 12.838 101.422 13.322C101.158 13.806 101.026 14.3927 101.026 15.082C101.026 15.7567 101.158 16.3433 101.422 16.842C101.686 17.326 102.045 17.7 102.5 17.964C102.955 18.228 103.468 18.36 104.04 18.36ZM117.474 21V18.69L117.254 18.184V14.048C117.254 13.3147 117.027 12.7427 116.572 12.332C116.132 11.9213 115.45 11.716 114.526 11.716C113.895 11.716 113.272 11.8187 112.656 12.024C112.055 12.2147 111.541 12.4787 111.116 12.816L109.884 10.418C110.529 9.96333 111.307 9.61133 112.216 9.362C113.125 9.11267 114.049 8.988 114.988 8.988C116.792 8.988 118.193 9.41333 119.19 10.264C120.187 11.1147 120.686 12.442 120.686 14.246V21H117.474ZM113.866 21.176C112.942 21.176 112.15 21.022 111.49 20.714C110.83 20.3913 110.324 19.9587 109.972 19.416C109.62 18.8733 109.444 18.2647 109.444 17.59C109.444 16.886 109.613 16.27 109.95 15.742C110.302 15.214 110.852 14.8033 111.6 14.51C112.348 14.202 113.323 14.048 114.526 14.048H117.672V16.05H114.9C114.093 16.05 113.536 16.182 113.228 16.446C112.935 16.71 112.788 17.04 112.788 17.436C112.788 17.876 112.957 18.228 113.294 18.492C113.646 18.7413 114.123 18.866 114.724 18.866C115.296 18.866 115.809 18.734 116.264 18.47C116.719 18.1913 117.049 17.788 117.254 17.26L117.782 18.844C117.533 19.6067 117.078 20.186 116.418 20.582C115.758 20.978 114.907 21.176 113.866 21.176ZM127.178 21.176C125.902 21.176 124.766 20.9193 123.768 20.406C122.771 19.878 121.986 19.152 121.414 18.228C120.857 17.304 120.578 16.2553 120.578 15.082C120.578 13.894 120.857 12.8453 121.414 11.936C121.986 11.012 122.771 10.2933 123.768 9.78C124.766 9.252 125.902 8.988 127.178 8.988C128.425 8.988 129.51 9.252 130.434 9.78C131.358 10.2933 132.04 11.034 132.48 12.002L129.818 13.432C129.51 12.8747 129.122 12.464 128.652 12.2C128.198 11.936 127.699 11.804 127.156 11.804C126.57 11.804 126.042 11.936 125.572 12.2C125.103 12.464 124.729 12.838 124.45 13.322C124.186 13.806 124.054 14.3927 124.054 15.082C124.054 15.7713 124.186 16.358 124.45 16.842C124.729 17.326 125.103 17.7 125.572 17.964C126.042 18.228 126.57 18.36 127.156 18.36C127.699 18.36 128.198 18.2353 128.652 17.986C129.122 17.722 129.51 17.304 129.818 16.732L132.48 18.184C132.04 19.1373 131.358 19.878 130.434 20.406C129.51 20.9193 128.425 21.176 127.178 21.176ZM134.81 18.58L134.898 14.4L140.42 9.164H144.512L139.21 14.554L137.428 16.006L134.81 18.58ZM131.972 21V4.676H135.404V21H131.972ZM140.794 21L136.79 16.028L138.946 13.366L144.952 21H140.794Z" fill="#FEFFCA"/>
</svg>
