<svg width="132" height="38" viewBox="0 0 132 38" fill="none" xmlns="http://www.w3.org/2000/svg">
<path d="M90.49 30V9H99.58C101.46 9 103.08 9.31 104.44 9.93C105.8 10.53 106.85 11.4 107.59 12.54C108.33 13.68 108.7 15.04 108.7 16.62C108.7 18.18 108.33 19.53 107.59 20.67C106.85 21.81 105.8 22.69 104.44 23.31C103.08 23.91 101.46 24.21 99.58 24.21H93.19L95.35 22.02V30H90.49ZM95.35 22.56L93.19 20.25H99.31C100.81 20.25 101.93 19.93 102.67 19.29C103.41 18.65 103.78 17.76 103.78 16.62C103.78 15.46 103.41 14.56 102.67 13.92C101.93 13.28 100.81 12.96 99.31 12.96H93.19L95.35 10.65V22.56ZM118.893 30V26.85L118.593 26.16V20.52C118.593 19.52 118.283 18.74 117.663 18.18C117.063 17.62 116.133 17.34 114.873 17.34C114.013 17.34 113.163 17.48 112.323 17.76C111.503 18.02 110.803 18.38 110.223 18.84L108.543 15.57C109.423 14.95 110.483 14.47 111.723 14.13C112.963 13.79 114.223 13.62 115.503 13.62C117.963 13.62 119.873 14.2 121.233 15.36C122.593 16.52 123.273 18.33 123.273 20.79V30H118.893ZM113.973 30.24C112.713 30.24 111.633 30.03 110.733 29.61C109.833 29.17 109.143 28.58 108.663 27.84C108.183 27.1 107.943 26.27 107.943 25.35C107.943 24.39 108.173 23.55 108.633 22.83C109.113 22.11 109.863 21.55 110.883 21.15C111.903 20.73 113.233 20.52 114.873 20.52H119.163V23.25H115.383C114.283 23.25 113.523 23.43 113.103 23.79C112.703 24.15 112.503 24.6 112.503 25.14C112.503 25.74 112.733 26.22 113.193 26.58C113.673 26.92 114.323 27.09 115.143 27.09C115.923 27.09 116.623 26.91 117.243 26.55C117.863 26.17 118.313 25.62 118.593 24.9L119.313 27.06C118.973 28.1 118.353 28.89 117.453 29.43C116.553 29.97 115.393 30.24 113.973 30.24ZM124.809 30V7.74H129.489V30H124.809Z" fill="#456B19"/>
<path d="M2.49 29V8H11.58C13.46 8 15.08 8.31 16.44 8.93C17.8 9.53 18.85 10.4 19.59 11.54C20.33 12.68 20.7 14.04 20.7 15.62C20.7 17.18 20.33 18.53 19.59 19.67C18.85 20.81 17.8 21.69 16.44 22.31C15.08 22.91 13.46 23.21 11.58 23.21H5.19L7.35 21.02V29H2.49ZM7.35 21.56L5.19 19.25H11.31C12.81 19.25 13.93 18.93 14.67 18.29C15.41 17.65 15.78 16.76 15.78 15.62C15.78 14.46 15.41 13.56 14.67 12.92C13.93 12.28 12.81 11.96 11.31 11.96H5.19L7.35 9.65V21.56ZM30.2932 29V25.85L29.9932 25.16V19.52C29.9932 18.52 29.6832 17.74 29.0632 17.18C28.4632 16.62 27.5332 16.34 26.2732 16.34C25.4132 16.34 24.5632 16.48 23.7232 16.76C22.9032 17.02 22.2032 17.38 21.6232 17.84L19.9432 14.57C20.8232 13.95 21.8832 13.47 23.1232 13.13C24.3632 12.79 25.6232 12.62 26.9032 12.62C29.3632 12.62 31.2732 13.2 32.6332 14.36C33.9932 15.52 34.6732 17.33 34.6732 19.79V29H30.2932ZM25.3732 29.24C24.1132 29.24 23.0332 29.03 22.1332 28.61C21.2332 28.17 20.5432 27.58 20.0632 26.84C19.5832 26.1 19.3432 25.27 19.3432 24.35C19.3432 23.39 19.5732 22.55 20.0332 21.83C20.5132 21.11 21.2632 20.55 22.2832 20.15C23.3032 19.73 24.6332 19.52 26.2732 19.52H30.5632V22.25H26.7832C25.6832 22.25 24.9232 22.43 24.5032 22.79C24.1032 23.15 23.9032 23.6 23.9032 24.14C23.9032 24.74 24.1332 25.22 24.5932 25.58C25.0732 25.92 25.7232 26.09 26.5432 26.09C27.3232 26.09 28.0232 25.91 28.6432 25.55C29.2632 25.17 29.7132 24.62 29.9932 23.9L30.7132 26.06C30.3732 27.1 29.7532 27.89 28.8532 28.43C27.9532 28.97 26.7932 29.24 25.3732 29.24ZM45.4188 12.62C46.6988 12.62 47.8388 12.88 48.8388 13.4C49.8588 13.9 50.6588 14.68 51.2388 15.74C51.8188 16.78 52.1088 18.12 52.1088 19.76V29H47.4288V20.48C47.4288 19.18 47.1388 18.22 46.5588 17.6C45.9988 16.98 45.1988 16.67 44.1588 16.67C43.4188 16.67 42.7488 16.83 42.1488 17.15C41.5688 17.45 41.1088 17.92 40.7688 18.56C40.4488 19.2 40.2888 20.02 40.2888 21.02V29H35.6088V12.86H40.0788V17.33L39.2388 15.98C39.8188 14.9 40.6488 14.07 41.7288 13.49C42.8088 12.91 44.0388 12.62 45.4188 12.62ZM59.651 29.24C57.751 29.24 56.271 28.76 55.211 27.8C54.151 26.82 53.621 25.37 53.621 23.45V9.29H58.301V23.39C58.301 24.07 58.481 24.6 58.841 24.98C59.201 25.34 59.691 25.52 60.311 25.52C61.051 25.52 61.681 25.32 62.201 24.92L63.461 28.22C62.981 28.56 62.401 28.82 61.721 29C61.061 29.16 60.371 29.24 59.651 29.24ZM51.131 16.82V13.22H62.321V16.82H51.131ZM62.7881 29V12.86H67.2581V17.42L66.6281 16.1C67.1081 14.96 67.8781 14.1 68.9381 13.52C69.9981 12.92 71.2881 12.62 72.8081 12.62V16.94C72.6081 16.92 72.4281 16.91 72.2681 16.91C72.1081 16.89 71.9381 16.88 71.7581 16.88C70.4781 16.88 69.4381 17.25 68.6381 17.99C67.8581 18.71 67.4681 19.84 67.4681 21.38V29H62.7881ZM74.8875 35.06C74.0475 35.06 73.2175 34.93 72.3975 34.67C71.5775 34.41 70.9075 34.05 70.3875 33.59L72.0975 30.26C72.4575 30.58 72.8675 30.83 73.3275 31.01C73.8075 31.19 74.2775 31.28 74.7375 31.28C75.3975 31.28 75.9175 31.12 76.2975 30.8C76.6975 30.5 77.0575 29.99 77.3775 29.27L78.2175 27.29L78.5775 26.78L84.3675 12.86H88.8675L81.5775 29.99C81.0575 31.29 80.4575 32.31 79.7775 33.05C79.1175 33.79 78.3775 34.31 77.5575 34.61C76.7575 34.91 75.8675 35.06 74.8875 35.06ZM77.6475 29.63L70.4475 12.86H75.2775L80.8575 26.36L77.6475 29.63Z" fill="#FEFFCA"/>
</svg>
